<?xml version="1.0" encoding="UTF-8"?>
<svg width="720px" height="720px" viewBox="0 0 720 720" version="1.1" xmlns="http://www.w3.org/2000/svg" xmlns:xlink="http://www.w3.org/1999/xlink">
    <title>options.hub.logo</title>
    <g id="Page-1" stroke="none" stroke-width="1" fill="none" fill-rule="evenodd">
        <g id="options.hub.logo" fill-rule="nonzero">
            <path d="M360,0 C161.18,0 0,161.18 0,360 C0,558.82 161.18,720 360,720 C558.82,720 720,558.82 720,360 C720,161.18 558.82,0 360,0 Z M360,621 C215.85,621 99,504.15 99,360 C99,215.85 215.85,99 360,99 C504.15,99 621,215.85 621,360 C621,504.15 504.15,621 360,621 Z" id="Shape" fill="#009CC9"></path>
            <path d="M311,437 L311,589.24 C326.96,592.68 343.51,594.5 360.5,594.5 C377.49,594.5 394.04,592.67 410,589.24 L410,437 L311,437 Z" id="Path" fill="#111111"></path>
            <path d="M277.16,243.07 C287.51,235.71 298.87,229.68 311,225.24 L311,284 L410,284 L410,225.24 C421.9,229.6 433.06,235.49 443.25,242.66 L507.48,178.43 C467.31,145.96 416.18,126.5 360.5,126.5 C304.82,126.5 253.22,146.14 212.97,178.88 L277.16,243.07 Z" id="Path" fill="#111111"></path>
            <path d="M527.49,196.6 L463.85,260.24 C477.78,274.6 488.76,291.84 495.77,311 L225.23,311 C232.16,292.07 242.96,275.01 256.66,260.75 L193.02,197.11 C151.87,239.28 126.5,296.93 126.5,360.5 C126.5,462.94 192.34,550 284,581.69 L284,482.5 C257.17,465.64 236.29,440.19 225.23,409.99 L495.76,409.99 C484.71,440.19 463.82,465.64 436.99,482.5 L436.99,581.69 C528.65,549.99 594.49,462.94 594.49,360.5 C594.49,296.67 568.92,238.82 527.48,196.6 L527.49,196.6 Z" id="Path" fill="#111111"></path>
        </g>
    </g>
</svg>